<svg width="151" height="62" viewBox="0 0 151 62" fill="none" xmlns="http://www.w3.org/2000/svg">
<rect x="0.25" y="0.25" width="61.5" height="61.5" stroke="black" stroke-width="0.5" stroke-dasharray="5 5"/>
<rect x="20" y="25" width="22" height="2" fill="#191C1F"/>
<rect x="20" y="35" width="22" height="2" fill="#191C1F"/>
<path d="M72.696 35.28C73.32 35.28 73.816 35.064 74.184 34.632C74.56 34.2 74.748 33.628 74.748 32.916V32.832C74.748 32.104 74.56 31.524 74.184 31.092C73.816 30.66 73.32 30.444 72.696 30.444C72.064 30.444 71.564 30.66 71.196 31.092C70.828 31.524 70.644 32.1 70.644 32.82V32.916C70.644 33.644 70.824 34.22 71.184 34.644C71.552 35.068 72.056 35.28 72.696 35.28ZM72.684 36.108C71.796 36.108 71.06 35.808 70.476 35.208C69.9 34.6 69.612 33.836 69.612 32.916V32.82C69.612 31.884 69.9 31.116 70.476 30.516C71.06 29.916 71.8 29.616 72.696 29.616C73.592 29.616 74.328 29.916 74.904 30.516C75.488 31.108 75.78 31.872 75.78 32.808V32.904C75.78 33.848 75.488 34.62 74.904 35.22C74.32 35.812 73.58 36.108 72.684 36.108ZM79.9502 36.108C79.0062 36.108 78.2582 35.804 77.7062 35.196C77.1542 34.588 76.8782 33.664 76.8782 32.424V32.04C76.8782 31.448 76.9022 30.924 76.9502 30.468C76.9982 30.004 77.0982 29.54 77.2502 29.076C77.4022 28.604 77.6022 28.212 77.8502 27.9C78.0982 27.588 78.4342 27.328 78.8582 27.12C79.2902 26.912 79.7982 26.792 80.3822 26.76L80.6222 26.748C81.5022 26.7 82.0982 26.612 82.4102 26.484L82.5422 27.324C82.1342 27.5 81.4982 27.608 80.6342 27.648L80.4542 27.66C79.4862 27.708 78.7942 28.024 78.3782 28.608C77.9702 29.184 77.7302 30.08 77.6582 31.296H77.7062C77.9222 30.856 78.2422 30.508 78.6662 30.252C79.0982 29.988 79.5982 29.856 80.1662 29.856C81.0382 29.856 81.7342 30.14 82.2542 30.708C82.7822 31.268 83.0462 31.996 83.0462 32.892V32.94C83.0462 33.908 82.7542 34.68 82.1702 35.256C81.5942 35.824 80.8542 36.108 79.9502 36.108ZM78.4502 34.668C78.8182 35.076 79.3222 35.28 79.9622 35.28C80.6022 35.28 81.1022 35.08 81.4622 34.68C81.8302 34.272 82.0142 33.696 82.0142 32.952V32.928C82.0142 32.232 81.8462 31.684 81.5102 31.284C81.1822 30.884 80.7022 30.684 80.0702 30.684C79.4062 30.684 78.8782 30.892 78.4862 31.308C78.1022 31.724 77.9102 32.292 77.9102 33.012V33.036C77.9102 33.716 78.0902 34.26 78.4502 34.668ZM85.7978 33.576C85.7258 34.44 85.5738 35.072 85.3418 35.472C85.1098 35.864 84.7458 36.06 84.2498 36.06C84.1458 36.06 84.0378 36.052 83.9258 36.036L83.8298 36V35.052L83.9138 35.076C83.9938 35.092 84.0778 35.1 84.1658 35.1C84.2938 35.1 84.3978 35.064 84.4778 34.992C84.5658 34.912 84.6338 34.788 84.6818 34.62C84.7378 34.452 84.7778 34.296 84.8018 34.152C84.8258 34 84.8538 33.788 84.8858 33.516C84.9178 33.228 84.9658 32.412 85.0298 31.068L85.0658 29.724H89.2058V36H88.2098V30.564H85.9538C85.8818 32.292 85.8298 33.296 85.7978 33.576ZM92.8629 36.108C92.2469 36.108 91.7429 35.956 91.3509 35.652C90.9669 35.34 90.7749 34.876 90.7749 34.26C90.7749 33.916 90.8589 33.616 91.0269 33.36C91.2029 33.096 91.4429 32.892 91.7469 32.748C92.0509 32.596 92.3829 32.488 92.7429 32.424C93.1029 32.352 93.4949 32.316 93.9189 32.316H94.8189V31.86C94.8189 31.356 94.7149 30.996 94.5069 30.78C94.2989 30.556 93.9549 30.444 93.4749 30.444C92.6109 30.444 92.1309 30.82 92.0349 31.572H91.0389C91.1029 30.9 91.3629 30.408 91.8189 30.096C92.2829 29.776 92.8509 29.616 93.5229 29.616C95.0509 29.616 95.8149 30.364 95.8149 31.86V36H94.8189V35.208C94.3389 35.808 93.6869 36.108 92.8629 36.108ZM92.9589 35.316C93.5029 35.316 93.9469 35.184 94.2909 34.92C94.6429 34.648 94.8189 34.276 94.8189 33.804V33.024H93.9549C92.4989 33.024 91.7709 33.436 91.7709 34.26C91.7709 34.964 92.1669 35.316 92.9589 35.316ZM100.375 36.108C99.4794 36.108 98.7434 35.82 98.1674 35.244C97.5914 34.66 97.3034 33.888 97.3034 32.928V32.832C97.3034 31.888 97.5954 31.116 98.1794 30.516C98.7714 29.916 99.4954 29.616 100.351 29.616C101.071 29.616 101.683 29.796 102.187 30.156C102.691 30.508 102.987 31.06 103.075 31.812H102.091C101.947 30.9 101.367 30.444 100.351 30.444C99.7674 30.444 99.2834 30.664 98.8994 31.104C98.5234 31.536 98.3354 32.112 98.3354 32.832V32.928C98.3354 33.68 98.5194 34.26 98.8874 34.668C99.2634 35.076 99.7634 35.28 100.387 35.28C100.859 35.28 101.263 35.148 101.599 34.884C101.943 34.612 102.139 34.232 102.187 33.744H103.111C103.047 34.432 102.759 35 102.247 35.448C101.743 35.888 101.119 36.108 100.375 36.108ZM108.947 30.564H106.919V36H105.923V30.564H103.895V29.724H108.947V30.564ZM110.321 29.724H111.317V31.92H112.433C113.137 31.92 113.713 32.092 114.161 32.436C114.609 32.78 114.833 33.292 114.833 33.972V34.008C114.833 34.696 114.609 35.2 114.161 35.52C113.721 35.84 113.145 36 112.433 36H110.321V29.724ZM112.493 35.22C112.973 35.22 113.317 35.12 113.525 34.92C113.733 34.712 113.837 34.408 113.837 34.008V33.972C113.837 33.54 113.729 33.224 113.513 33.024C113.305 32.816 112.965 32.712 112.493 32.712H111.317V35.22H112.493ZM120.422 32.796V36H119.426V29.724H120.422V32.652L123.026 29.724H124.19L121.502 32.676L124.418 36H123.206L120.422 32.796ZM126.813 33.576C126.741 34.44 126.589 35.072 126.357 35.472C126.125 35.864 125.761 36.06 125.265 36.06C125.161 36.06 125.053 36.052 124.941 36.036L124.845 36V35.052L124.929 35.076C125.009 35.092 125.093 35.1 125.181 35.1C125.309 35.1 125.413 35.064 125.493 34.992C125.581 34.912 125.649 34.788 125.697 34.62C125.753 34.452 125.793 34.296 125.817 34.152C125.841 34 125.869 33.788 125.901 33.516C125.933 33.228 125.981 32.412 126.045 31.068L126.081 29.724H130.221V36H129.225V30.564H126.969C126.897 32.292 126.845 33.296 126.813 33.576ZM132.235 36V29.724H133.231V34.56L136.435 29.724H137.431V36H136.435V31.164L133.231 36H132.235ZM140.32 32.796V36H139.324V29.724H140.32V32.652L142.924 29.724H144.088L141.4 32.676L144.316 36H143.104L140.32 32.796ZM147.097 36.108C146.481 36.108 145.977 35.956 145.585 35.652C145.201 35.34 145.009 34.876 145.009 34.26C145.009 33.916 145.093 33.616 145.261 33.36C145.437 33.096 145.677 32.892 145.981 32.748C146.285 32.596 146.617 32.488 146.977 32.424C147.337 32.352 147.729 32.316 148.153 32.316H149.053V31.86C149.053 31.356 148.949 30.996 148.741 30.78C148.533 30.556 148.189 30.444 147.709 30.444C146.845 30.444 146.365 30.82 146.269 31.572H145.273C145.337 30.9 145.597 30.408 146.053 30.096C146.517 29.776 147.085 29.616 147.757 29.616C149.285 29.616 150.049 30.364 150.049 31.86V36H149.053V35.208C148.573 35.808 147.921 36.108 147.097 36.108ZM147.193 35.316C147.737 35.316 148.181 35.184 148.525 34.92C148.877 34.648 149.053 34.276 149.053 33.804V33.024H148.189C146.733 33.024 146.005 33.436 146.005 34.26C146.005 34.964 146.401 35.316 147.193 35.316Z" fill="black"/>
</svg>
